<?xml version="1.0" encoding="utf-8"?>
<!-- Generator: Adobe Illustrator 19.1.0, SVG Export Plug-In . SVG Version: 6.00 Build 0)  -->
<svg version="1.1" id="Social_Media_Dingdongs" xmlns="http://www.w3.org/2000/svg" xmlns:xlink="http://www.w3.org/1999/xlink"
	 x="0px" y="0px" width="300px" height="200px" viewBox="0 200 300 200" enable-background="new 0 200 300 200"
	 xml:space="preserve">
<g id="Twitter">
	<path fill="#FFFFFF" d="M237.2,316.3c-0.9,0.5-2,0.7-3.1,0.9c1.1-0.7,1.9-1.7,2.4-3c-1,0.6-2.2,1-3.4,1.3c-0.9-1-2.3-1.6-3.9-1.6
		c-2.9,0-5.3,2.3-5.3,5.3c0,0.5,0,0.8,0.1,1.2c-4.4-0.2-8.3-2.4-10.9-5.6c-0.4,0.8-0.7,1.7-0.7,2.7c0,1.9,0.9,3.5,2.4,4.5
		c-0.9,0-1.7-0.2-2.4-0.6v0.1c0,2.5,1.8,4.7,4.2,5.2c-0.4,0.1-0.9,0.2-1.4,0.2c-0.3,0-0.6-0.1-1-0.1c0.7,2.1,2.7,3.6,5,3.7
		c-1.9,1.4-4.1,2.2-6.6,2.2c-0.4,0-0.9-0.1-1.3-0.1c2.4,1.5,5.2,2.4,8.1,2.4c9.8,0,15.1-8.1,15.1-15.1v-0.7
		C235.6,318.3,236.5,317.4,237.2,316.3z"/>
</g>
<g id="Flickr">
	<path fill="#FFFFFF" d="M210.2,224.1c0,3.2,2.6,5.9,5.9,5.9s5.9-2.7,5.9-5.9s-2.6-5.9-5.9-5.9C212.9,218.2,210.2,220.8,210.2,224.1
		z M225.4,224.1c0,3.2,2.7,5.9,5.9,5.9s5.9-2.7,5.9-5.9s-2.6-5.9-5.9-5.9C228.1,218.2,225.4,220.8,225.4,224.1z"/>
</g>
<g id="Tumblr">
	<path fill="#FFFFFF" d="M175.8,317v-5.2h-3.4c-0.1,0.2-0.1,0.4-0.1,0.7c-0.1,0.1-0.1,0.2-0.1,0.3c-0.4,1.9-1.4,3.3-3.1,4
		c-0.5,0.2-1,0.2-1.4,0.2v4.2h2.5c0.1,5.9,0.1,8.9,0.1,9.1c0,0.1,0,0.2,0,0.4c0.3,2.6,1.6,4.1,4.1,4.7c1,0.2,2,0.4,3,0.4
		c1.4-0.1,2.7-0.2,4-0.7v-5c-0.8,0.2-1.5,0.5-2.1,0.6c-1.2,0.3-2.2,0.1-3.1-0.7c-0.1-0.1-0.2-0.2-0.2-0.4c-0.1-0.6-0.2-1.3-0.2-1.9
		v-6.5h5.3V317L175.8,317L175.8,317z"/>
</g>
<g id="Facebook">
	<path fill="#FFFFFF" d="M180.5,212.3h-3.1c-3.4,0-5.7,2.3-5.7,5.9v2.7h-3.1c-0.2,0-0.5,0.2-0.5,0.5v3.9c0,0.2,0.2,0.5,0.5,0.5h3.1
		v9.8c0,0.2,0.2,0.5,0.5,0.5h4.1c0.2,0,0.5-0.2,0.5-0.5v-9.9h3.6c0.2,0,0.5-0.2,0.5-0.5v-3.9c0-0.1-0.1-0.2-0.1-0.4
		c-0.1-0.1-0.2-0.1-0.4-0.1h-3.6v-2.3c0-1.1,0.2-1.7,1.7-1.7h2.1c0.3,0,0.5-0.2,0.5-0.5v-3.6C180.9,212.5,180.7,212.3,180.5,212.3z"
		/>
</g>
<g id="Pinterest">
	<path fill="#FFFFFF" d="M183.9,270c-0.7-4.8-5.4-7.2-10.6-6.7c-4,0.5-8,3.7-8.2,8.4c-0.1,2.8,0.7,4.9,3.4,5.6
		c1.2-2.1-0.4-2.5-0.6-4c-1-6.1,7.1-10.4,11.4-6c2.9,2.9,1,12.1-3.7,11.1c-4.6-0.9,2.2-8.2-1.4-9.6c-2.9-1.2-4.5,3.5-3.1,5.9
		c-0.8,4-2.5,7.9-1.8,12.9c2.3-1.7,3.1-4.9,3.7-8.2c1.2,0.7,1.8,1.4,3.2,1.5C181.6,281.2,184.7,275.3,183.9,270z"/>
</g>
<g id="GooglePlus">
	<path fill="#FFFFFF" d="M26.9,264.4h-5.2c-2.3,0-4,0.5-5.4,1.7c-1.1,1-1.8,2.5-1.8,3.8c0,2.1,1.6,4.4,4.8,4.4c0.3,0,0.6,0,0.9,0
		l-0.1,0.1c-0.1,0.3-0.2,0.6-0.2,1c0,0.9,0.4,1.4,0.8,1.9l0.1,0h-0.1c-1.2,0.1-3.6,0.2-5.4,1.3c-2.1,1.2-2.2,2.9-2.2,3.4
		c0,2.1,1.9,4.1,6.1,4.1c4.9,0,7.4-2.7,7.4-5.4c0-2-1.2-2.9-2.4-4l-1.1-0.8c-0.3-0.2-0.8-0.6-0.8-1.2c0-0.6,0.4-1,0.8-1.3l0.1-0.1
		c1.2-0.9,2.4-1.9,2.4-4.1c0-2.2-1.3-3.3-2.1-3.8h1.8h0.1l1.4-1C26.9,264.5,26.9,264.4,26.9,264.4C27,264.4,27,264.4,26.9,264.4z
		 M20.6,285c-3,0-5-1.4-5-3.5c0-1.3,0.8-2.3,2.4-2.9c1.3-0.4,3-0.5,3-0.5c0.3,0,0.4,0,0.7,0.1c2.1,1.4,3.1,2.2,3.1,3.8
		C24.8,283.8,23.2,285,20.6,285z M20.6,273.5c-2.5,0-3.6-3.3-3.6-5c0-0.9,0.2-1.6,0.6-2.1c0.5-0.5,1.2-0.9,2-0.9
		c2.3,0,3.6,3.1,3.6,5.2c0,0.4,0,1.4-0.7,2.1C22,273.2,21.2,273.5,20.6,273.5z"/>
	<path fill="#FFFFFF" d="M34.2,274.5h-2.8v-2.8c0,0-0.1-0.1-0.2-0.1h-1.2c-0.1,0-0.2,0.1-0.2,0.1v2.8h-2.8c-0.1,0-0.2,0-0.2,0.1v1.2
		c0,0.1,0.1,0.2,0.2,0.2H30v2.8c0,0,0.1,0.1,0.2,0.1h1.2c0.1,0,0.2,0,0.2-0.1V276h2.8c0.1,0,0.2-0.1,0.2-0.2v-1.2
		C34.3,274.6,34.3,274.5,34.2,274.5z"/>
</g>
<path id="Reddit" fill="#FFFFFF" d="M287,275c0-1.5-1.2-2.8-2.8-2.8c-0.7,0-1.4,0.3-1.9,0.8c-1.8-1.2-4.3-2-7.2-2.1l1.6-4.8l4.1,1v0
	c0,1.2,1,2.2,2.2,2.2s2.2-1,2.2-2.2s-1-2.2-2.2-2.2c-1,0-1.8,0.6-2.1,1.4l-4.5-1c-0.2-0.1-0.3,0.1-0.5,0.2l-1.7,5.3
	c-2.9,0-5.5,0.9-7.5,2.1c-0.5-0.5-1.1-0.8-1.8-0.8c-1.5,0-2.8,1.2-2.8,2.8c0,0.9,0.5,1.8,1.3,2.3c0,0.3-0.1,0.6-0.1,0.9
	c0,4,5,7.3,11,7.3s11-3.3,11-7.3c0-0.3,0-0.6-0.1-0.9C286.5,276.9,287,276,287,275z M269.4,276.8c0-0.8,0.8-1.6,1.6-1.6
	c0.8,0,1.6,0.7,1.6,1.6c0,0.9-0.8,1.6-1.6,1.6C270.1,278.5,269.4,277.8,269.4,276.8z M278.6,281.7c-0.8,0.8-2.1,1.2-4,1.2
	c-1.8,0-3.1-0.3-4-1.2c-0.1-0.2-0.1-0.4,0-0.6c0.2-0.1,0.4-0.1,0.6,0c0.7,0.7,1.8,1,3.4,1c1.6,0,2.8-0.3,3.4-1
	c0.1-0.2,0.4-0.2,0.5,0C278.8,281.3,278.8,281.5,278.6,281.7z M278.5,278.5c-0.8,0-1.6-0.7-1.6-1.6c0-0.8,0.7-1.6,1.6-1.6
	c0.9,0,1.6,0.7,1.6,1.6C280.1,277.7,279.4,278.5,278.5,278.5z"/>
<g id="RSS">
	<path fill="#FFFFFF" d="M15.9,329.9c-1.9,0-3.5,1.6-3.5,3.5c0,1.9,1.6,3.5,3.5,3.5s3.5-1.6,3.5-3.5
		C19.4,331.4,17.8,329.9,15.9,329.9z"/>
	<path fill="#FFFFFF" d="M12.7,321c-0.2,0-0.4,0.2-0.4,0.3v4.5c0,0.2,0.2,0.4,0.4,0.4c5.7,0,10.3,4.6,10.3,10.4
		c0,0.2,0.2,0.4,0.3,0.4h4.4l0,0c0.2,0,0.3-0.2,0.3-0.4v-0.1C28.2,327.9,21.3,321,12.7,321z"/>
	<path fill="#FFFFFF" d="M36,336.3c-0.1-12.8-10.4-23.1-23.2-23.1c-0.2,0-0.4,0.2-0.4,0.3v4.6c0,0.2,0.2,0.3,0.4,0.3
		c9.9,0,17.9,8.1,17.9,18c0,0.2,0.2,0.4,0.3,0.4h4.6l0,0c0.2,0,0.3-0.2,0.3-0.4L36,336.3z"/>
</g>
<g id="Printer">
	<path fill="#FFFFFF" d="M218.1,281.8v4.3h11.4v-4.3v-2.9h-11.4V281.8z M219.5,280.3h8.6v1.5h-8.6V280.3z M219.5,283.2h8.6v1.4h-8.6
		V283.2z"/>
	<polygon fill="#FFFFFF" points="229.5,268.9 229.5,264.6 218.1,264.6 218.1,268.9 218.1,271.8 229.5,271.8 	"/>
	<path fill="#FFFFFF" d="M232.4,268.9h-1.4v2.9v1.5h-14.3v-1.5v-2.9h-1.4c-1.4,0-2.8,1.4-2.8,2.9v7.1c0,1.4,1.4,2.9,2.8,2.9h1.4
		v-2.9v-1.4h14.3v1.4v2.9h1.4c1.4,0,2.9-1.5,2.9-2.9v-7.1C235.2,270.3,233.8,268.9,232.4,268.9z"/>
</g>
<g id="LinkedIn">
	<path id="linkedin" fill="#FFFFFF" d="M136.6,275.9v8.9h-5.1v-8.3c0-2.1-0.8-3.5-2.6-3.5c-1.4,0-2.2,1-2.6,1.9
		c-0.2,0.4-0.2,0.8-0.2,1.2v8.6H121c0,0,0.1-14,0-15.4h5.1v2.2l0,0.1h0v-0.1c0.7-1,1.9-2.5,4.7-2.5
		C134.1,269,136.6,271.1,136.6,275.9z M115.6,261.8c-1.8,0-2.9,1.2-2.9,2.7s1.1,2.6,2.8,2.6h0.1c1.8,0,2.9-1.1,2.9-2.6
		C118.4,263,117.3,261.8,115.6,261.8z M113,284.7h5.1v-15.4H113V284.7z"/>
</g>
<g id="Instagram">
	<path fill="#FFFFFF" d="M65.6,264.2h16.5c1.6,0,2.8,1.1,2.8,2.9v16.5c0,1.7-1.2,2.9-2.8,2.9H65.6c-1.6,0-2.8-1.1-2.8-2.9v-16.5
		C62.7,265.4,64.1,264.2,65.6,264.2L65.6,264.2z M78.9,266.7c-0.6,0-1,0.4-1,1v2.4c0,0.6,0.4,1,1,1h2.5c0.6,0,1-0.4,1-1v-2.4
		c0-0.6-0.4-1-1-1H78.9L78.9,266.7z M82.4,273.6h-1.9c0.2,0.6,0.3,1.2,0.3,1.9c0,3.6-3.1,6.6-6.9,6.6s-6.9-3-6.9-6.6
		c0-0.7,0.1-1.3,0.3-1.9h-2v9.4c0,0.4,0.4,0.9,0.9,0.9h15.4c0.4,0,0.9-0.4,0.9-0.9L82.4,273.6L82.4,273.6z M73.8,271
		c-2.4,0-4.4,1.9-4.4,4.3s2,4.3,4.4,4.3s4.4-1.9,4.4-4.3C78.3,272.9,76.3,271,73.8,271z"/>
</g>
<g id="Email">
	<path fill="#FFFFFF" d="M135,229.8c0,0.5-0.2,0.9-0.4,1.4l-7.1-8l7.1-6.2c0.2,0.4,0.4,0.9,0.4,1.5L135,229.8L135,229.8z
		 M123.7,224.6l9.8-8.6c-0.4-0.2-0.8-0.3-1.3-0.3h-17c-0.5,0-1,0.2-1.3,0.3L123.7,224.6z M126.4,224.1l-2.3,2
		c-0.1,0.1-0.3,0.2-0.4,0.2s-0.4-0.1-0.5-0.2l-2.3-2l-7.2,8.1c0.4,0.2,0.9,0.4,1.5,0.4h16.9c0.6,0,1.1-0.1,1.5-0.4L126.4,224.1z
		 M112.8,217c-0.2,0.4-0.4,1-0.4,1.5v11.3c0,0.5,0.2,0.9,0.4,1.4l7.2-8L112.8,217z"/>
</g>
<g id="Search">
	<path fill="#FFFFFF" d="M86,333.8l-5.9-5.9c-0.9,1.4-2.1,2.5-3.4,3.4l5.9,5.9c0.9,0.9,2.5,0.9,3.4,0S86.9,334.7,86,333.8z"/>
	<path fill="#FFFFFF" d="M80.3,321.9c0-5.3-4.3-9.6-9.6-9.6c-5.3,0-9.6,4.3-9.6,9.6s4.3,9.6,9.6,9.6S80.3,327.2,80.3,321.9z
		 M70.7,329.1c-4,0-7.2-3.2-7.2-7.2s3.2-7.2,7.2-7.2c4,0,7.2,3.2,7.2,7.2S74.6,329.1,70.7,329.1z"/>
</g>
<g id="Social">
	<path fill="#FFFFFF" d="M131.1,328.2c-1.4,0-2.6,0.6-3.4,1.6l-7.4-3.8c0.1-0.3,0.2-0.8,0.2-1.1c0-0.4-0.1-0.9-0.2-1.2l7.3-3.8
		c0.8,1.1,2.1,1.8,3.4,1.8c2.4,0,4.4-1.9,4.4-4.4c0-2.4-1.9-4.4-4.4-4.4c-2.4,0-4.3,1.9-4.3,4.4c0,0.4,0.1,0.8,0.2,1.1l-7.3,3.8
		c-0.8-1-2.1-1.7-3.4-1.7c-2.4,0-4.3,2-4.3,4.4c0,2.4,2,4.3,4.3,4.3c1.4,0,2.7-0.7,3.4-1.8l7.4,3.8c-0.2,0.4-0.2,0.8-0.2,1.2
		c0,2.4,2,4.4,4.3,4.4c2.4,0,4.4-2,4.4-4.4C135.4,330.2,133.5,328.2,131.1,328.2z"/>
</g>
<g id="Discuss">
	<path fill="#FFFFFF" d="M84.8,213.8H62.9c-1.5,0-2.8,1.2-2.8,2.8v24.8l5.5-5.5h19.2c1.5,0,2.8-1.2,2.8-2.8v-16.4
		C87.6,215.1,86.3,213.8,84.8,213.8z"/>
</g>
<polygon id="YouTube" fill="#FFFFFF" points="263.2,314.5 286.1,325 263.2,335.6 "/>
<path id="Beard" fill="#FFFFFF" d="M30.7,228.8V214h4v20h-1.9v2.1H14.7V234h-2v-20h4v14.7h0.9H30.7 M30.1,230.1H17.6v2.1h12.5V230.1
	z"/>
<path id="Menu" fill="#FFFFFF" d="M12.8,373.6h24.7v4.7H12.8V373.6z M12.8,364.1h24.7v4.7H12.8V364.1z M12.8,383.1h24.7v4.7H12.8
	V383.1z"/>
<path id="GitHub" fill="#FFFFFF" d="M284,219.8c0.2-0.4,0.2-3-0.8-5.4c0,0-2.2,0.2-5.5,2.5c-0.7-0.2-1.9-0.3-3.1-0.3
	c-1.2,0-2.4,0.1-3.1,0.3c-3.3-2.3-5.5-2.5-5.5-2.5c-1,2.4-1,4.9-0.8,5.4c-1.1,1.2-1.8,2.7-1.8,4.7c0,8.7,7.3,8.9,9.1,8.9
	c0.4,0,1.2,0,2.1,0c0.9,0,1.7,0,2.1,0c1.8,0,9.1-0.1,9.1-8.9C285.9,222.5,285.2,221,284,219.8z M274.7,232.3L274.7,232.3
	c-4.7,0-8.2-0.5-8.2-5c0-1.1,0.4-2.1,1.3-2.9c1.5-1.4,4-0.6,6.9-0.6c0,0,0,0,0,0c0,0,0,0,0,0c2.9,0,5.4-0.7,6.9,0.6
	c0.9,0.8,1.3,1.8,1.3,2.9C282.9,231.8,279.3,232.3,274.7,232.3z M280.1,227.7c0,1.2-0.7,2.2-1.6,2.2s-1.6-1-1.6-2.2
	c0-1.2,0.7-2.2,1.6-2.2S280.1,226.5,280.1,227.7z M272.4,227.7c0,1.2-0.7,2.2-1.6,2.2c-0.9,0-1.6-1-1.6-2.2c0-1.2,0.7-2.2,1.6-2.2
	C271.7,225.5,272.4,226.5,272.4,227.7z M272.4,227.7c0,1.2-0.7,2.2-1.6,2.2c-0.9,0-1.6-1-1.6-2.2c0-1.2,0.7-2.2,1.6-2.2
	C271.7,225.5,272.4,226.5,272.4,227.7z M280.1,227.7c0,1.2-0.7,2.2-1.6,2.2c-0.9,0-1.6-1-1.6-2.2c0-1.2,0.7-2.2,1.6-2.2
	C279.4,225.5,280.1,226.5,280.1,227.7z"/>
<g>
	
		<rect id="rect7_2_" x="61.5" y="373.6" transform="matrix(-0.7071 0.7071 -0.7071 -0.7071 391.8861 589.636)" fill="#FFFFFF" width="24.7" height="4.7"/>
	<g>
		
			<rect id="rect7_1_" x="61.5" y="373.6" transform="matrix(-0.7071 -0.7071 0.7071 -0.7071 -139.8303 694.0409)" fill="#FFFFFF" width="24.7" height="4.7"/>
	</g>
</g>
</svg>
